<svg width="83" height="84" viewBox="0 0 83 84" fill="none" xmlns="http://www.w3.org/2000/svg">
<g clip-path="url(#clip0_99_309)">
<path d="M1.77145 41.4973C1.7695 48.5549 3.60588 55.4462 7.09771 61.5202L1.4375 82.2734L22.5869 76.7047C28.4366 79.9025 34.9907 81.5781 41.651 81.5786H41.6685C63.6554 81.5786 81.5532 63.6121 81.5627 41.5289C81.5669 30.828 77.4208 20.7656 69.8879 13.1951C62.3563 5.62537 52.3395 1.45435 41.6669 1.44946C19.6774 1.44946 1.78085 19.415 1.77177 41.4973" fill="url(#paint0_linear_99_309)"/>
<path d="M0.346914 41.4843C0.344645 48.7959 2.24684 55.9336 5.86317 62.2251L0 83.7223L21.9078 77.9539C27.9441 81.2589 34.7404 83.0014 41.6559 83.004H41.6738C64.4495 83.004 82.9903 64.3912 83 41.5175C83.0039 30.4321 78.7086 20.008 70.9066 12.1663C63.1037 4.32567 52.7287 0.00455814 41.6738 0C18.8942 0 0.355992 18.6102 0.346914 41.4843ZM13.3938 61.1416L12.5758 59.8376C9.13713 54.347 7.32216 48.0021 7.32475 41.4869C7.33188 22.4746 22.7401 7.00651 41.6868 7.00651C50.8621 7.01042 59.4851 10.6022 65.9707 17.1191C72.4561 23.6366 76.0248 32.3003 76.0225 41.5149C76.0141 60.5272 60.6056 75.9972 41.6738 75.9972H41.6602C35.4958 75.994 29.4501 74.3315 24.1776 71.19L22.9229 70.4428L9.92239 73.8656L13.3938 61.1416Z" fill="url(#paint1_linear_99_309)"/>
<path d="M31.3439 24.1412C30.5703 22.4147 29.7562 22.3798 29.0205 22.3496C28.4181 22.3235 27.7295 22.3255 27.0415 22.3255C26.3528 22.3255 25.234 22.5856 24.2882 23.6226C23.3415 24.6605 20.6738 27.1688 20.6738 32.2704C20.6738 37.3719 24.3741 42.3025 24.89 42.995C25.4064 43.6862 32.0335 54.4903 42.5291 58.6467C51.2519 62.1008 53.027 61.4138 54.9201 61.2406C56.8135 61.068 61.0297 58.733 61.8898 56.3116C62.7506 53.8906 62.7506 51.8153 62.4925 51.3817C62.2345 50.9496 61.5458 50.6901 60.5132 50.1718C59.4805 49.6535 54.4036 47.1445 53.4572 46.7985C52.5105 46.4527 51.8222 46.2801 51.1335 47.3184C50.4449 48.3551 48.4675 50.6901 47.8648 51.3817C47.2627 52.0748 46.66 52.1611 45.6276 51.6424C44.5944 51.1222 41.2689 50.0285 37.3234 46.4963C34.2537 43.7478 32.1813 40.3536 31.5789 39.3153C30.9765 38.2786 31.5144 37.7167 32.0322 37.2C32.4961 36.7354 33.0651 35.9891 33.5819 35.3839C34.0968 34.7783 34.2686 34.3463 34.613 33.6547C34.9576 32.9625 34.7851 32.357 34.5274 31.8383C34.2686 31.3197 32.2621 26.1914 31.3439 24.1412Z" fill="white"/>
</g>
<defs>
<linearGradient id="paint0_linear_99_309" x1="41.5001" y1="82.2734" x2="41.5001" y2="1.44946" gradientUnits="userSpaceOnUse">
<stop stop-color="#1FAF38"/>
<stop offset="1" stop-color="#60D669"/>
</linearGradient>
<linearGradient id="paint1_linear_99_309" x1="41.5" y1="83.7223" x2="41.5" y2="0" gradientUnits="userSpaceOnUse">
<stop stop-color="#F9F9F9"/>
<stop offset="1" stop-color="white"/>
</linearGradient>
<clipPath id="clip0_99_309">
<rect width="83" height="84" fill="white"/>
</clipPath>
</defs>
</svg>
